# AST/ASF file generated using VICON BodyLanguage
# -----------------------------------------------
:version 1.10
:name VICON
:units
  mass 1.0
  length 0.45
  angle deg
:documentation
   .ast/.asf automatically generated from VICON data using
   VICON BodyBuilder and BodyLanguage model FoxedUp or BRILLIANT.MOD
:root
   order TX TY TZ RX RY RZ
   axis XYZ
   position 0 0 0  
   orientation 0 0 0 
:bonedata
  begin
     id 1 
     name lhipjoint
     direction 0.716248 -0.617586 0.324924 
     length 2.63557 
     axis 0 0 0  XYZ
  end
  begin
     id 2 
     name lfemur
     direction 0.34202 -0.939693 0  
     length 7.01235  
     axis 0 0 20  XYZ
    dof rx ry rz
    limits (-160.0 20.0)
           (-70.0 70.0)
           (-60.0 70.0)
  end
  begin
     id 3 
     name ltibia
     direction 0.34202 -0.939693 0   
     length 8.14348   
     axis 0 0 20   XYZ
    dof rx
    limits (-10.0 170.0)
  end
  begin
     id 4 
     name lfoot
     direction 0.0982064 -0.26982 0.95789   
     length 1.99077   
     axis -90 7.62852e-016 20   XYZ
    dof rx rz
    limits (-45.0 90.0)
           (-70.0 20.0)
  end
  begin
     id 5 
     name ltoes
     direction 1.53511e-011 -4.21891e-011 1   
     length 0.99735   
     axis -90 7.62852e-016 20   XYZ
    dof rx
    limits (-90.0 20.0)
  end
  begin
     id 6 
     name rhipjoint
     direction -0.687828 -0.642391 0.337975   
     length 2.5338  
     axis 0 0 0  XYZ 
  end
  begin
     id 7 
     name rfemur
     direction -0.34202 -0.939693 0   
     length 6.90199   
     axis 0 0 -20   XYZ
    dof rx ry rz
    limits (-160.0 20.0)
           (-70.0 70.0)
           (-70.0 60.0)
  end
  begin
     id 8 
     name rtibia
     direction -0.34202 -0.939693 0   
     length 8.07725   
     axis 0 0 -20   XYZ
    dof rx
    limits (-10.0 170.0)
 end
 begin
     id 9 
     name rfoot
     direction -0.0912384 -0.250675 0.963762   
     length 2.11621  
     axis -90 -7.62852e-016 -20   XYZ
    dof rx rz
    limits (-45.0 90.0)
           (-20.0 70.0)
  end
  begin
     id 10 
     name rtoes
     direction -1.5359e-011 -4.21894e-011 1   
     length 1.06031   
     axis -90 -7.62852e-016 -20   XYZ
    dof rx
    limits (-90.0 20.0)
  end
  begin
     id 11 
     name lowerback
     direction -0.0403572 0.987953 -0.149396   
     length 2.05637   
     axis 0 0 0   XYZ
    dof rx ry rz
    limits (-20.0 45.0)
           (-30.0 30.0)
           (-30.0 30.0)
  end
  begin
     id 12 
     name upperback
     direction -0.00512151 0.997598 0.0690792   
     length 2.01086   
     axis 0 0 0   XYZ
    dof rx ry rz
    limits (-20.0 45.0)
           (-30.0 30.0)
           (-30.0 30.0)
  end
  begin
     id 13 
     name thorax
     direction 0.0136133 0.989392 0.14463   
     length 2.09035   
     axis 0 0 0   XYZ
    dof rx ry rz
    limits (-20.0 45.0)
           (-30.0 30.0)
           (-30.0 30.0)
  end
  begin
     id 14 
     name lowerneck
     direction 0.0250714 0.992811 0.11704   
     length 1.70806   
     axis 0 0 0   XYZ
    dof rx ry rz
    limits (-20.0 45.0)
           (-30.0 30.0)
           (-30.0 30.0)
  end
  begin
     id 15 
     name upperneck
     direction -0.0519205 0.998394 -0.0226787   
     length 1.6689   
     axis 0 0 0   XYZ
    dof rx ry rz
    limits (-20.0 45.0)
           (-30.0 30.0)
           (-30.0 30.0)
  end
  begin
     id 16
     name head
     direction -0.0201693 0.999547 -0.0223192  
     length 1.83412  
     axis 0 0 0   XYZ
    dof rx ry rz
    limits (-20.0 45.0)
           (-30.0 30.0)
           (-30.0 30.0)
  end
  begin
     id 17 
     name lclavicle
     direction 0.89585 0.444077 -0.0157448  
     length 3.39587  
     axis 0 0 0   XYZ
    dof ry rz
    limits (-20.0 10.0)
           (0.0 20.0)
  end
  begin
     id 18 
     name lhumerus
     direction 1 -4.48956e-011 1.99132e-028   
     length 5.79199   
     axis 180 -30 -90   XYZ
    dof rx ry rz
    limits (-60.0 90.0)
           (-90.0 90.0)
           (-90.0 90.0)
  end
  begin
     id 19
     name lradius
     direction 1 -4.48974e-011 8.72912e-028   
     length 3.49908   
     axis 180 -30 -90   XYZ
    dof rx
    limits (-10.0 170.0)
  end
  begin
     id 20
     name lwrist
     direction 1 -4.48994e-011 4.76442e-027   
     length 1.74954   
     axis -3.27502e-015 90 90   XYZ
    dof ry
    limits (-180.0 0.0)
 end
  begin
     id 21 
     name lhand
     direction 1 -4.48945e-011 9.531e-027   
     length 0.593861   
     axis -6.08098e-015 90 90   XYZ
    dof rx rz
    limits (-90.0 90.0)
           (-45.0 45.0)
  end
  begin
     id 22 
     name lfingers
     direction 1 -4.48945e-011 1.9062e-026   
     length 0.478786   
     axis -1.21619e-014 90 90   XYZ
    dof rx
    limits (0.0 90.0)
  end
  begin
     id 23
     name lthumb
     direction 0.707107 -6.34904e-011 0.707107   
     length 0.687444   
     axis -90 45 -9.86923e-015   XYZ
    dof rx rz
    limits (-45.0 45.0)
           (-45.0 45.0)
  end
  begin
     id 24 
     name rclavicle
     direction -0.940466 0.338394 0.0318182   
     length 3.51226  
     axis 0 0 0   XYZ 
    dof ry rz
    limits (-10.0 20.0)
           (-20.0 0.0)
  end
  begin
     id 25 
     name rhumerus
     direction -1 -4.48976e-011 2.0905e-027  
     length 5.73799   
     axis 180 30 90   XYZ
    dof rx ry rz
    limits (-90.0 60.0)
           (-90.0 90.0)
           (-90.0 90.0)
  end
  begin
     id 26 
     name rradius
     direction -1 -4.48968e-011 -9.39692e-029   
     length 3.57916   
     axis 180 30 90   XYZ
    dof rx
    limits (-10.0 170.0)
  end
  begin
     id 27 
     name rwrist
     direction -1 -4.48959e-011 4.7652e-027   
     length 1.78958   
     axis -3.27502e-015 -90 -90   XYZ
    dof ry
    limits (-180.0 0.0)
  end
  begin
     id 28
     name rhand
     direction -1 -4.49042e-011 9.5267e-027   
     length 0.615577   
     axis -6.08098e-015 -90 -90   XYZ
    dof rx rz
    limits (-90.0 90.0)
           (-45.0 45.0)
  end
  begin
     id 29
     name rfingers
     direction -1 -4.48935e-011 1.90629e-026   
     length 0.496294   
     axis -1.21619e-014 -90 -90   XYZ
    dof rx
    limits (0.0 90.0)
  end
  begin
     id 30
     name rthumb
     direction -0.707107 -6.34977e-011 0.707107   
     length 0.712582   
     axis -90 -45 9.86923e-015   XYZ
    dof rx rz
    limits (-45.0 45.0)
           (-45.0 45.0)
  end
:hierarchy
  begin
    root lhipjoint rhipjoint lowerback
    lhipjoint lfemur
    lfemur ltibia
    ltibia lfoot
    lfoot ltoes
    rhipjoint rfemur
    rfemur rtibia
    rtibia rfoot
    rfoot rtoes
    lowerback upperback
    upperback thorax
    thorax lowerneck lclavicle rclavicle
    lowerneck upperneck
    upperneck head
    lclavicle lhumerus
    lhumerus lradius
    lradius lwrist
    lwrist lhand lthumb
    lhand lfingers
    rclavicle rhumerus
    rhumerus rradius
    rradius rwrist
    rwrist rhand rthumb
    rhand rfingers
  end

#!OML:ASF H:\Terrain\Patient Classification 1\PaulMetrics\March17Take5\PaulMetrics.ASF
:FULLY-SPECIFIED
:DEGREES
1957
root 9.06805 16.7881 -19.8779 -4.84125 -71.6376 -350.82
lowerback 6.95028 -0.591303 -1.5071
upperback -8.85453 -1.14171 0.267025
thorax -13.5503 -0.441149 1.36571
lowerneck -8.93223 -0.778919 4.68937
upperneck 1.11194 -1.57016 -0.030378
head 1.8437 -0.767378 -0.881937
rclavicle 6.94752e-014 1.70955e-014
rhumerus -3.44517 -2.78633 15.2856
rradius 110.681
rwrist -26.0119
rhand -19.675 -20.1647
rfingers 7.12502
rthumb 6.65352 309.96
lclavicle 6.94752e-014 1.70955e-014
lhumerus -11.6323 5.72132 0.21953
lradius 103.82
lwrist 41.8336
lhand -24.379 -39.0968
lfingers 7.12502
lthumb 2.1113 -9.12751
rfemur -9.37952 4.2059 17.8254
rtibia 34.1262
rfoot -27.5602 -22.0207
rtoes -3.85518
lfemur -17.5497 -7.01438 -11.1524
ltibia 35.2591
lfoot -20.6986 7.99357
ltoes -13.0855
1958
root 9.0813 16.7873 -19.8808 -4.53824 -71.7919 -351.223
lowerback 7.13237 -0.559158 -1.31122
upperback -8.78158 -1.06055 0.338116
thorax -13.5825 -0.415415 1.32121
lowerneck -8.18646 -0.693952 4.37565
upperneck 0.773382 -1.38337 0.0833977
head 1.60514 -0.679599 -0.772526
rclavicle -4.99943e-014 -9.54166e-015
rhumerus -3.07778 -3.02752 14.8654
rradius 110.978
rwrist -26.2693
rhand -19.3123 -20.0751
rfingers 7.12502
rthumb 7.00368 310.061
lclavicle -4.99943e-014 -9.54166e-015
lhumerus -11.4124 5.7069 0.665475
lradius 104.139
lwrist 41.3523
lhand -24.1223 -39.5025
lfingers 7.12502
lthumb 2.35923 -9.53583
rfemur -9.50388 3.75553 17.9088
rtibia 34.3373
rfoot -27.1523 -21.8821
rtoes -6.502
lfemur -17.5159 -6.71882 -11.0177
ltibia 35.2832
lfoot -20.6192 7.9611
ltoes -12.2469
1959
root 9.09172 16.7847 -19.8835 -5.63655 -71.9286 -350.292
lowerback 7.39177 -0.56732 -1.59483
upperback -8.64091 -1.10619 0.335298
thorax -13.5744 -0.406331 1.48797
lowerneck -8.46274 -0.650376 4.78667
upperneck 1.28254 -1.35504 -0.667807
head 1.81948 -0.671227 -1.09075
rclavicle 1.15295e-014 1.98785e-015
rhumerus -2.32916 -3.47772 14.2579
rradius 111.066
rwrist -26.6139
rhand -18.6815 -20.176
rfingers 7.12502
rthumb 7.61261 309.981
lclavicle 1.15295e-014 1.98785e-015
lhumerus -11.3095 5.68481 1.05189
lradius 104.624
lwrist 41.1217
lhand -24.1294 -39.497
lfingers 7.12502
lthumb 2.35238 -9.53025
rfemur -9.46232 3.41888 17.5522
rtibia 34.5448
rfoot -26.8042 -21.6204
rtoes -8.33746
lfemur -17.3552 -6.46591 -11.3795
ltibia 35.343
lfoot -20.4714 8.21584
ltoes -13.1126
1960
root 9.10508 16.7756 -19.8913 -6.4569 -72.0248 -349.465
lowerback 7.45018 -0.613444 -1.92555
upperback -8.54105 -1.20548 0.377878
thorax -13.484 -0.418028 1.7382
lowerneck -8.68656 -0.623417 4.50502
upperneck 1.57533 -1.3141 -0.406172
head 1.9584 -0.64062 -0.961624
rclavicle 3.11098e-014 1.74931e-014
rhumerus -1.48222 -3.83412 13.5417
rradius 111.249
rwrist -27.1109
rhand -18.3707 -20.2538
rfingers 7.12502
rthumb 7.91252 309.914
lclavicle 3.11098e-014 1.74931e-014
lhumerus -11.123 5.67123 1.55038
lradius 105.114
lwrist 41.3108
lhand -24.0276 -38.9333
lfingers 7.12502
lthumb 2.45069 -8.9676
rfemur -9.65514 3.22266 17.2417
rtibia 34.7801
rfoot -26.5667 -21.2529
rtoes -7.80857
lfemur -17.3689 -6.31567 -11.6284
ltibia 35.3785
lfoot -20.4486 8.17374
ltoes -13.2664
1961
root 9.12021 16.7723 -19.9042 -6.1101 -72.0879 -349.756
lowerback 7.41504 -0.599743 -1.83787
upperback -8.48148 -1.16786 0.403344
thorax -13.3937 -0.408117 1.70796
lowerneck -7.58207 -0.524477 3.12511
upperneck 0.655455 -1.05651 1.48159
head 1.474 -0.494408 -0.102598
rclavicle 7.20594e-014 1.94809e-014
rhumerus -1.05473 -3.90931 12.8928
rradius 111.634
rwrist -27.3638
rhand -18.2083 -20.2189
rfingers 7.12502
rthumb 8.06932 309.955
lclavicle 7.20594e-014 1.94809e-014
lhumerus -10.6277 5.55934 2.11682
lradius 105.733
lwrist 41.7452
lhand -23.7862 -38.3262
lfingers 7.12502
lthumb 2.68383 -8.36338
rfemur -9.9828 3.12301 17.3383
rtibia 35.0628
rfoot -26.5361 -21.0209
rtoes -6.60506
lfemur -17.4933 -6.13106 -11.4474
ltibia 35.3459
lfoot -20.3235 7.98056
ltoes -13.5018
1962
root 9.1332 16.7749 -19.9151 -6.40277 -72.1701 -349.523
lowerback 7.4427 -0.498898 -1.78363
upperback -8.32671 -1.02857 0.288156
thorax -13.2373 -0.355182 1.5226
lowerneck -6.4707 -0.386998 2.62019
upperneck -0.113982 -0.787029 2.06126
head 1.0396 -0.370358 0.176972
rclavicle -1.5704e-014 -1.19271e-015
rhumerus -0.777059 -4.00279 12.2235
rradius 112
rwrist -27.2746
rhand -18.0514 -20.3589
rfingers 7.12502
rthumb 8.22074 309.821
lclavicle -1.5704e-014 -1.19271e-015
lhumerus -10.0055 5.41642 2.77905
lradius 106.463
lwrist 41.8353
lhand -23.8855 -37.8623
lfingers 7.12502
lthumb 2.58798 -7.89828
rfemur -10.1527 3.00016 17.2706
rtibia 35.3366
rfoot -26.3775 -20.9631
rtoes -7.53074
lfemur -17.4649 -5.83664 -11.5356
ltibia 35.2905
lfoot -19.881 8.24764
ltoes -15.7312
1963
root 9.14655 16.7719 -19.9201 -7.79202 -72.3074 -348.216
lowerback 7.54298 -0.46633 -2.0586
upperback -8.14744 -1.02666 0.182441
thorax -13.0889 -0.334737 1.55935
lowerneck -7.80195 -0.499703 4.02137
upperneck 1.77288 -1.05523 -0.354203
head 1.87066 -0.508755 -0.843292
rclavicle -6.24184e-014 -1.63003e-014
rhumerus 0.0611294 -4.16483 11.4977
rradius 112.229
rwrist -27.5103
rhand -17.8316 -20.5696
rfingers 7.12502
rthumb 8.4329 309.619
lclavicle -6.24184e-014 -1.63003e-014
lhumerus -9.7832 5.25511 3.41618
lradius 107.198
lwrist 41.6187
lhand -23.9474 -37.5388
lfingers 7.12502
lthumb 2.52816 -7.57403
rfemur -10.2195 2.91246 16.8236
rtibia 35.5409
rfoot -26.5068 -20.6183
rtoes -7.26596
lfemur -17.2977 -5.75478 -11.9838
ltibia 35.2846
lfoot -19.8605 8.33176
ltoes -14.7765
1964
root 9.15947 16.7675 -19.9245 -8.51562 -72.4024 -347.536
lowerback 7.59502 -0.471266 -2.21627
upperback -8.02199 -1.05087 0.169487
thorax -12.9721 -0.332729 1.63703
lowerneck -6.3303 -0.140685 2.6855
upperneck 0.432405 -0.444262 1.29151
head 1.18833 -0.200355 -0.0627115
rclavicle 6.59965e-014 2.46493e-014
rhumerus 0.931048 -4.22684 10.7938
rradius 112.477
rwrist -28.1656
rhand -17.6049 -20.7444
rfingers 7.12502
rthumb 8.65164 309.453
lclavicle 6.59965e-014 2.46493e-014
lhumerus -9.6001 4.95856 3.98564
lradius 108.031
lwrist 41.6032
lhand -24.1248 -36.8963
lfingers 7.12502
lthumb 2.35683 -6.92955
rfemur -10.2946 2.81511 16.5737
rtibia 35.6755
rfoot -26.757 -20.231
rtoes -5.94393
lfemur -17.2374 -5.7754 -12.1741
ltibia 35.3439
lfoot -20.1376 8.16814
ltoes -12.7588
1965
root 9.17417 16.7667 -19.9326 -7.57523 -72.5441 -348.497
lowerback 7.56326 -0.372919 -1.81078
upperback -7.91623 -0.857811 0.147421
thorax -12.8405 -0.281117 1.34753
lowerneck -6.30907 -0.204533 2.9596
upperneck 0.576184 -0.543577 1.03333
head 1.22909 -0.251009 -0.191793
rclavicle 3.51849e-014 7.15625e-015
rhumerus 1.12729 -4.25945 10.0675
rradius 112.978
rwrist -28.619
rhand -17.394 -21.0061
rfingers 7.12502
rthumb 8.85515 309.2
lclavicle 3.51849e-014 7.15625e-015
lhumerus -8.69901 4.50287 4.64696
lradius 108.637
lwrist 41.8066
lhand -24.7548 -36.1297
lfingers 7.12502
lthumb 1.74843 -6.15715
rfemur -10.4541 2.73755 16.8946
rtibia 35.7511
rfoot -26.487 -20.2039
rtoes -6.4031
lfemur -17.4258 -5.42968 -11.8476
ltibia 35.4641
lfoot -19.8462 8.61758
ltoes -17.1936
1966
root 9.18954 16.7693 -19.9416 -6.8431 -72.7542 -349.282
lowerback 7.54871 -0.225146 -1.3422
upperback -7.75938 -0.600044 0.0183757
thorax -12.6615 -0.209671 0.894155
lowerneck -6.47795 -0.345584 3.99092
upperneck 0.932076 -0.792208 0.0301452
head 1.36791 -0.38302 -0.68955
rclavicle 1.70955e-014 -2.78299e-015
rhumerus 1.16113 -4.33181 9.19857
rradius 113.573
rwrist -28.6675
rhand -17.106 -21.6346
rfingers 7.12502
rthumb 9.13306 308.583
lclavicle 1.70955e-014 -2.78299e-015
lhumerus -7.64264 4.08944 5.33779
lradius 109.213
lwrist 42.1189
lhand -24.753 -36.0542
lfingers 7.12502
lthumb 1.75015 -6.08159
rfemur -10.5722 2.69583 17.1733
rtibia 35.7749
rfoot -26.1937 -20.1573
rtoes -7.30754
lfemur -17.5916 -5.01662 -11.5724
ltibia 35.6337
lfoot -19.4091 8.93862
ltoes -20.6682
1967
root 9.20152 16.7732 -19.9511 -7.00305 -72.893 -349.137
lowerback 7.43863 -0.198991 -1.26101
upperback -7.56507 -0.549197 -0.0321116
thorax -12.3703 -0.19648 0.781511
lowerneck -6.86147 -0.237644 3.81779
upperneck 1.70115 -0.656252 -0.00118377
head 1.68719 -0.303486 -0.673334
rclavicle -8.29926e-015 3.97569e-016
rhumerus 1.89041 -4.43328 8.15772
rradius 113.859
rwrist -28.6715
rhand -16.7622 -21.9237
rfingers 7.12502
rthumb 9.46482 308.309
lclavicle -8.29926e-015 3.97569e-016
lhumerus -7.23005 3.72257 6.07309
lradius 110.083
lwrist 42.2243
lhand -24.9205 -35.9255
lfingers 7.12502
lthumb 1.58838 -5.95169
rfemur -10.6867 2.53544 17.1229
rtibia 35.8469
rfoot -26.0139 -20.0348
rtoes -8.50979
lfemur -17.6464 -4.97877 -11.5783
ltibia 35.7512
lfoot -19.3329 8.89556
ltoes -19.5265
